<svg width="44" height="43" viewBox="0 0 44 43" fill="none" xmlns="http://www.w3.org/2000/svg">
<path d="M15.8293 38.3305C21.6224 38.3305 26.3186 33.5897 26.3186 27.7417C26.3186 21.8937 21.6224 17.153 15.8293 17.153C10.0362 17.153 5.33997 21.8937 5.33997 27.7417C5.33997 33.5897 10.0362 38.3305 15.8293 38.3305Z" fill="#ECC6C3"/>
<path d="M17.8227 14.8585C18.0849 14.8907 18.3441 14.9435 18.5981 15.0164C18.7534 15.0702 18.8399 15.1239 18.8577 15.1777C18.881 15.2852 18.7379 15.3893 18.4683 15.5136C18.1988 15.6379 17.8693 15.7252 17.673 15.8327C17.4766 15.9402 17.4766 16.0444 17.4234 16.1687C17.2303 16.5827 17.0647 17.0091 16.9275 17.4452C16.7913 17.8612 16.6911 18.2883 16.628 18.7218C16.5631 19.1437 16.5631 19.5731 16.628 19.995C16.6505 20.0958 16.6502 20.2003 16.6272 20.301C16.6042 20.4016 16.5591 20.4957 16.4952 20.5764C16.4313 20.657 16.3502 20.7221 16.258 20.7669C16.1658 20.8116 16.0648 20.8349 15.9625 20.8349C15.8601 20.8349 15.7591 20.8116 15.6669 20.7669C15.5747 20.7221 15.4937 20.657 15.4297 20.5764C15.3658 20.4957 15.3207 20.4016 15.2977 20.301C15.2747 20.2003 15.2744 20.0958 15.2969 19.995C15.3618 19.5731 15.3618 19.1437 15.2969 18.7218C15.2339 18.2883 15.1337 17.8612 14.9974 17.4452C14.8519 16.9942 14.6773 16.5531 14.4749 16.125C14.4183 16.0175 14.4217 15.9134 14.2253 15.7891C14.029 15.6648 13.6962 15.5774 13.43 15.4699C13.1638 15.3624 13.0173 15.2583 13.0406 15.134C13.0562 15.0802 13.1427 15.0265 13.3002 14.9727C13.5542 14.8998 13.8134 14.847 14.0756 14.8149C15.3209 14.6596 16.5813 14.6742 17.8227 14.8585V14.8585Z" fill="#E44450"/>
<path d="M28.7114 29.8749C28.6809 30.14 28.6274 30.4019 28.5517 30.6576C28.4984 30.8155 28.4485 30.9029 28.3952 30.9197C28.2888 30.9432 28.1823 30.7987 28.0625 30.5266C27.9427 30.2545 27.8495 29.9219 27.7463 29.7237C27.6432 29.5255 27.5367 29.5289 27.4135 29.4718C27.0123 29.28 26.6 29.1129 26.1789 28.9712C25.7667 28.8341 25.3437 28.7329 24.9143 28.6689C24.4953 28.6034 24.0688 28.6034 23.6498 28.6689C23.4842 28.6776 23.3212 28.6251 23.1912 28.5213C23.0612 28.4174 22.9731 28.2694 22.9433 28.1048C22.9136 27.9402 22.9442 27.7703 23.0295 27.6268C23.1148 27.4833 23.2489 27.3761 23.4068 27.3251C23.4873 27.3117 23.5693 27.3117 23.6498 27.3251C24.0688 27.3907 24.4953 27.3907 24.9143 27.3251C25.3437 27.2611 25.7667 27.16 26.1789 27.0228C26.6107 26.8838 27.0332 26.7166 27.4435 26.5223C27.55 26.4685 27.6531 26.4685 27.7763 26.2703C27.8994 26.0721 27.9859 25.7362 28.0924 25.4674C28.1989 25.1987 28.3021 25.0509 28.4252 25.0744C28.4784 25.0945 28.5284 25.1785 28.5816 25.3364C28.657 25.5922 28.7105 25.8541 28.7413 26.1191C28.8972 27.3668 28.8871 28.6299 28.7114 29.8749V29.8749Z" fill="#E44450"/>
<path d="M13.8359 40.8668C13.5737 40.835 13.3144 40.7822 13.0605 40.7089C12.9008 40.6552 12.8176 40.6014 12.8009 40.5477C12.7743 40.4402 12.9207 40.336 13.1903 40.2117C13.4599 40.0874 13.7893 40.0001 13.9823 39.8758C14.1753 39.7515 14.1787 39.6641 14.2352 39.5398C14.4263 39.125 14.5919 38.6987 14.7311 38.2633C14.8663 37.8472 14.9654 37.4201 15.0273 36.9867C15.0941 36.565 15.0941 36.1352 15.0273 35.7135C15.0111 35.6253 15.0123 35.5347 15.0308 35.4469C15.0493 35.3592 15.0848 35.276 15.1351 35.202C15.1855 35.1281 15.2498 35.0649 15.3244 35.0161C15.3989 34.9672 15.4823 34.9337 15.5697 34.9173C15.6571 34.901 15.7468 34.9022 15.8338 34.9209C15.9207 34.9396 16.0032 34.9754 16.0764 35.0262C16.1496 35.0771 16.2122 35.142 16.2606 35.2173C16.309 35.2925 16.3422 35.3767 16.3584 35.4649C16.3751 35.5469 16.3751 35.6315 16.3584 35.7135C16.2916 36.1352 16.2916 36.565 16.3584 36.9867C16.4203 37.4201 16.5194 37.8472 16.6546 38.2633C16.7937 38.6987 16.9593 39.125 17.1504 39.5398C17.207 39.6473 17.207 39.7515 17.4033 39.8758C17.5997 40.0001 17.9325 40.0874 18.1954 40.2117C18.4583 40.336 18.6113 40.4234 18.5847 40.5477C18.5681 40.6014 18.4849 40.6552 18.3251 40.7089C18.0712 40.7822 17.812 40.835 17.5498 40.8668C16.3173 41.0336 15.0683 41.0336 13.8359 40.8668V40.8668Z" fill="#E44450"/>
<path d="M2.94728 25.8672C2.97712 25.6022 3.02945 25.3404 3.10369 25.0845C3.15693 24.9277 3.21018 24.8403 3.26342 24.8224C3.36659 24.7989 3.47308 24.9434 3.59621 25.2155C3.67876 25.4821 3.77427 25.7444 3.8824 26.0016C3.98556 26.1998 4.09205 26.1964 4.21518 26.2535C4.62499 26.4464 5.04621 26.6136 5.47643 26.7541C5.8887 26.8909 6.31175 26.992 6.74101 27.0564C7.16004 27.1219 7.58655 27.1219 8.00558 27.0564C8.09781 27.0268 8.19522 27.0173 8.29136 27.0286C8.3875 27.0399 8.48015 27.0717 8.56317 27.1219C8.6462 27.1721 8.71768 27.2396 8.77288 27.3198C8.82809 27.4001 8.86574 27.4913 8.88335 27.5874C8.90095 27.6834 8.89811 27.7822 8.875 27.8771C8.85189 27.9719 8.80905 28.0608 8.74932 28.1376C8.68959 28.2145 8.61434 28.2777 8.52857 28.3229C8.4428 28.3682 8.34847 28.3945 8.25184 28.4002C8.17029 28.4136 8.08713 28.4136 8.00558 28.4002C7.58655 28.3347 7.16004 28.3347 6.74101 28.4002C6.31175 28.4646 5.8887 28.5657 5.47643 28.7025C5.04512 28.8492 4.6238 29.0242 4.21518 29.2266C4.10869 29.2803 4.0022 29.2803 3.8824 29.4785C3.76361 29.7406 3.6581 30.0085 3.56626 30.2814C3.45977 30.5535 3.35328 30.698 3.23347 30.6745C3.18023 30.6543 3.12698 30.5703 3.07374 30.4124C2.99986 30.1564 2.94753 29.8946 2.91733 29.6297C2.75933 28.3799 2.76941 27.1143 2.94728 25.8672V25.8672Z" fill="#E44450"/>
<path d="M26.3452 20.0891C26.5114 20.2992 26.6584 20.5241 26.7845 20.7609C26.8577 20.9087 26.881 21.0095 26.8544 21.0566C26.8278 21.1036 26.6214 21.1237 26.3552 21.0062C26.089 20.8886 25.7828 20.7273 25.5698 20.6702C25.5037 20.6495 25.434 20.643 25.3652 20.6511C25.2965 20.6592 25.2301 20.6817 25.1705 20.7173C24.7447 20.8733 24.329 21.0561 23.9259 21.2648C23.539 21.4637 23.1694 21.6952 22.8211 21.9569C22.4778 22.2037 22.1747 22.5029 21.9225 22.8437C21.8143 22.9812 21.6583 23.072 21.4862 23.0976C21.3141 23.1233 21.1388 23.082 20.9958 22.982C20.8527 22.8821 20.7527 22.7309 20.7159 22.5593C20.6792 22.3877 20.7084 22.2083 20.7977 22.0577C20.8459 21.9905 20.9043 21.9316 20.9708 21.883C21.3096 21.6287 21.6072 21.3227 21.8527 20.9759C22.1119 20.6243 22.3412 20.2512 22.5382 19.8606C22.7449 19.4537 22.9261 19.0341 23.0806 18.6042C23.1152 18.5431 23.1371 18.4756 23.1451 18.4058C23.1531 18.3359 23.147 18.2651 23.1272 18.1977C23.064 17.9827 22.9009 17.6703 22.7944 17.4049C22.6879 17.1395 22.6513 16.9615 22.7445 16.9044C22.8377 16.8473 22.8909 16.9044 23.0374 16.9749C23.2714 17.102 23.494 17.2492 23.7029 17.415C24.6987 18.1825 25.5875 19.0819 26.3452 20.0891V20.0891Z" fill="#E44450"/>
<path d="M23.5166 38.4816C23.3082 38.6481 23.0855 38.7954 22.851 38.9217C22.7013 38.9956 22.6048 39.0191 22.5549 38.9923C22.505 38.9654 22.4916 38.7571 22.6081 38.4917C22.7246 38.2263 22.881 37.9139 22.9409 37.6989C22.9645 37.6325 22.9747 37.562 22.9707 37.4916C22.9667 37.4212 22.9486 37.3523 22.9176 37.2891C22.7634 36.8586 22.5811 36.4388 22.3718 36.0327C22.1755 35.6488 21.9473 35.2824 21.6896 34.9375C21.4421 34.5902 21.1423 34.2842 20.8011 34.0305C20.6649 33.9212 20.575 33.7637 20.5496 33.59C20.5242 33.4163 20.5651 33.2393 20.6641 33.0949C20.7632 32.9505 20.9128 32.8495 21.0829 32.8124C21.2529 32.7753 21.4305 32.8048 21.5798 32.895C21.6464 32.9448 21.7048 33.0049 21.7529 33.0731C22.0051 33.4167 22.3081 33.7192 22.6514 33.97C23 34.2302 23.3696 34.4605 23.7562 34.6587C24.1593 34.8674 24.575 35.0503 25.0008 35.2063C25.0604 35.2418 25.1268 35.2644 25.1956 35.2725C25.2643 35.2806 25.334 35.274 25.4002 35.2533C25.6131 35.1895 25.9226 35.0248 26.1855 34.9173C26.4484 34.8098 26.6281 34.7729 26.6847 34.867C26.7413 34.961 26.6847 35.0148 26.6115 35.1659C26.486 35.4024 26.3401 35.6272 26.1755 35.8378C25.4103 36.8351 24.516 37.7243 23.5166 38.4816V38.4816Z" fill="#E44450"/>
<path d="M5.31007 35.6362C5.14585 35.4254 5 35.2006 4.87412 34.9644C4.79758 34.8166 4.77762 34.7158 4.80091 34.6687C4.82421 34.6217 5.03386 34.6016 5.30009 34.7191C5.56631 34.8367 5.87247 34.998 6.08545 35.0551C6.15158 35.0758 6.22128 35.0823 6.29006 35.0742C6.35884 35.0661 6.42517 35.0436 6.48479 35.008C6.91063 34.852 7.32632 34.6692 7.7294 34.4605C8.11678 34.2624 8.48644 34.0309 8.83424 33.7684C9.1785 33.5177 9.48265 33.2152 9.73609 32.8715C9.78787 32.7963 9.85383 32.7321 9.93019 32.6826C10.0065 32.6331 10.0918 32.5993 10.1811 32.5831C10.2704 32.5668 10.362 32.5685 10.4507 32.588C10.5393 32.6076 10.6233 32.6445 10.6978 32.6968C10.7723 32.7491 10.8359 32.8156 10.8849 32.8927C10.934 32.9698 10.9675 33.0559 10.9835 33.146C10.9996 33.2362 10.9979 33.3287 10.9786 33.4182C10.9593 33.5077 10.9227 33.5924 10.8709 33.6676C10.8244 33.7362 10.7657 33.7954 10.6978 33.8423C10.3566 34.0961 10.0568 34.4021 9.8093 34.7494C9.55113 35.101 9.32291 35.4741 9.12709 35.8647C8.92035 36.2716 8.73918 36.6912 8.58466 37.1211C8.54856 37.1815 8.52573 37.2491 8.51769 37.3192C8.50965 37.3893 8.5166 37.4604 8.53807 37.5276C8.60129 37.7392 8.76103 38.055 8.87085 38.317C8.98067 38.5791 9.01727 38.7638 8.92409 38.8209C8.83091 38.878 8.77767 38.8209 8.62792 38.7504C8.39445 38.6224 8.17184 38.4752 7.96235 38.3103C6.96332 37.5432 6.07121 36.6438 5.31007 35.6362V35.6362Z" fill="#E44450"/>
<path d="M8.12866 17.2437C8.33814 17.0787 8.56075 16.9316 8.79422 16.8036C8.94397 16.7297 9.04048 16.7062 9.0904 16.7297C9.14032 16.7532 9.15363 16.9682 9.04048 17.2336C8.92733 17.499 8.76427 17.8114 8.7077 18.0264C8.68708 18.0937 8.68057 18.1646 8.68859 18.2346C8.69661 18.3046 8.71898 18.3721 8.75429 18.4329C8.90881 18.8628 9.08999 19.2824 9.29672 19.6893C9.49331 20.0794 9.72148 20.4524 9.97893 20.8046C10.2274 21.1521 10.5284 21.4582 10.8708 21.7116C11.0195 21.8177 11.1204 21.979 11.1513 22.1601C11.1822 22.3412 11.1405 22.5273 11.0355 22.6775C10.9305 22.8276 10.7707 22.9294 10.5913 22.9606C10.4118 22.9918 10.2275 22.9498 10.0788 22.8437C10.01 22.7979 9.95117 22.7384 9.90572 22.6691C9.65426 22.3236 9.34982 22.0208 9.00387 21.7721C8.65587 21.5127 8.28748 21.2824 7.90236 21.0834C7.49928 20.8747 7.08359 20.6918 6.65775 20.5359C6.59724 20.501 6.53023 20.4791 6.46094 20.4716C6.39165 20.464 6.32156 20.4711 6.25509 20.4922C6.0421 20.556 5.73262 20.7206 5.46972 20.8281C5.20682 20.9356 5.02712 20.9726 4.97054 20.8785C4.91397 20.7844 4.97054 20.7307 5.04376 20.5795C5.17051 20.3438 5.31632 20.1191 5.4797 19.9077C6.24126 18.9046 7.13212 18.0087 8.12866 17.2437V17.2437Z" fill="#E44450"/>
<path d="M32.8579 17.2706C36.5925 17.2706 39.62 14.2143 39.62 10.4443C39.62 6.67427 36.5925 3.61806 32.8579 3.61806C29.1232 3.61806 26.0957 6.67427 26.0957 10.4443C26.0957 14.2143 29.1232 17.2706 32.8579 17.2706Z" fill="#ECC6C3"/>
<path d="M34.1456 2.13993C34.6115 2.21047 34.7846 2.27766 34.8112 2.34485C34.8378 2.41203 34.7413 2.48258 34.5516 2.55313L34.2921 2.65391C34.2099 2.68306 34.1299 2.71786 34.0525 2.75805C33.916 2.82524 33.926 2.89578 33.8861 2.96297C33.7579 3.22987 33.6467 3.50478 33.5533 3.78602C33.467 4.05464 33.4024 4.3299 33.3603 4.60907C33.3184 4.88179 33.3184 5.15939 33.3603 5.43211C33.3706 5.48946 33.3695 5.5483 33.3573 5.60525C33.345 5.6622 33.3218 5.71616 33.2889 5.76404C33.256 5.81193 33.214 5.8528 33.1655 5.88432C33.1169 5.91585 33.0627 5.93741 33.0059 5.94778C32.9491 5.95814 32.8908 5.95711 32.8344 5.94475C32.7779 5.93238 32.7245 5.90891 32.6771 5.87569C32.6296 5.84247 32.5891 5.80014 32.5579 5.75112C32.5267 5.7021 32.5053 5.64735 32.495 5.59C32.4851 5.53785 32.4851 5.48426 32.495 5.43211C32.5383 5.1595 32.5383 4.88168 32.495 4.60907C32.4561 4.32928 32.3914 4.05375 32.302 3.78602C32.2101 3.50423 32.0989 3.22922 31.9692 2.96297C31.9326 2.89578 31.9393 2.82524 31.8029 2.75805C31.726 2.71662 31.6459 2.68178 31.5633 2.65391L31.307 2.55313C31.114 2.48258 31.0341 2.41539 31.0474 2.34485C31.0608 2.2743 31.2438 2.21047 31.713 2.13993C32.5199 2.02579 33.3387 2.02579 34.1456 2.13993V2.13993Z" fill="#E44450"/>
<path d="M41.1541 11.8216C41.0842 12.2919 41.0177 12.4666 40.9511 12.4935C40.8846 12.5204 40.8147 12.423 40.7448 12.2315L40.6449 11.9694C40.6146 11.8871 40.5802 11.8064 40.5418 11.7276C40.4752 11.5898 40.4053 11.5999 40.3388 11.5596C40.0744 11.4302 39.8021 11.318 39.5235 11.2237C39.2574 11.1366 38.9847 11.0714 38.7082 11.0288C38.438 10.9866 38.163 10.9866 37.8928 11.0288C37.836 11.0392 37.7777 11.0382 37.7213 11.0258C37.6649 11.0134 37.6115 10.99 37.564 10.9567C37.5166 10.9235 37.4761 10.8812 37.4449 10.8322C37.4136 10.7831 37.3923 10.7284 37.382 10.6711C37.3717 10.6137 37.3728 10.5549 37.385 10.4979C37.3973 10.441 37.4205 10.387 37.4534 10.3391C37.4863 10.2912 37.5283 10.2504 37.5768 10.2188C37.6254 10.1873 37.6796 10.1658 37.7364 10.1554C37.7881 10.1453 37.8412 10.1453 37.8928 10.1554C38.1629 10.1991 38.4381 10.1991 38.7082 10.1554C38.9853 10.116 39.2582 10.0508 39.5235 9.96054C39.8026 9.86774 40.075 9.75549 40.3388 9.62461C40.4053 9.58765 40.4752 9.59437 40.5418 9.45664C40.5814 9.3784 40.6159 9.2976 40.6449 9.21476L40.7448 8.95609C40.8147 8.76125 40.8812 8.68062 40.9511 8.69406C41.021 8.7075 41.0842 8.89226 41.1541 9.36593C41.2672 10.1805 41.2672 11.007 41.1541 11.8216V11.8216Z" fill="#E44450"/>
<path d="M31.5734 18.9066C31.1075 18.836 30.9344 18.7688 30.9078 18.6983C30.8812 18.6277 30.9743 18.5639 31.1674 18.4934L31.4269 18.3926C31.5085 18.362 31.5885 18.3272 31.6665 18.2884C31.803 18.2213 31.793 18.1507 31.8329 18.0835C31.9597 17.816 32.0708 17.5412 32.1657 17.2605C32.2525 16.9922 32.316 16.7168 32.3554 16.4374C32.3987 16.1648 32.3987 15.887 32.3554 15.6144C32.3451 15.557 32.3461 15.4982 32.3584 15.4413C32.3706 15.3843 32.3939 15.3303 32.4268 15.2825C32.4597 15.2346 32.5016 15.1937 32.5502 15.1622C32.5988 15.1307 32.653 15.1091 32.7098 15.0987C32.7666 15.0884 32.8249 15.0894 32.8813 15.1018C32.9377 15.1141 32.9912 15.1376 33.0386 15.1708C33.0861 15.204 33.1265 15.2464 33.1578 15.2954C33.189 15.3444 33.2104 15.3991 33.2206 15.4565C33.2306 15.5086 33.2306 15.5622 33.2206 15.6144C33.1773 15.887 33.1773 16.1648 33.2206 16.4374C33.2596 16.7172 33.3242 16.9927 33.4136 17.2605C33.5056 17.5423 33.6168 17.8173 33.7464 18.0835C33.783 18.1507 33.773 18.2213 33.9128 18.2884C33.9903 18.3285 34.0704 18.3633 34.1524 18.3926L34.4087 18.4934C34.6017 18.5639 34.6815 18.6311 34.6682 18.6983C34.6549 18.7655 34.4719 18.836 34.0027 18.9066C33.1968 19.0204 32.3792 19.0204 31.5734 18.9066V18.9066Z" fill="#E44450"/>
<path d="M24.5548 9.22484C24.6247 8.75453 24.6913 8.57984 24.7578 8.55297C24.8244 8.52609 24.8943 8.62016 24.9642 8.815L25.064 9.07703C25.0929 9.15994 25.1273 9.24075 25.1672 9.31891C25.2337 9.45664 25.3036 9.44656 25.3702 9.48688C25.6352 9.61487 25.9074 9.72704 26.1855 9.82281C26.4512 9.91043 26.724 9.9745 27.0008 10.0143C27.2708 10.058 27.5461 10.058 27.8161 10.0143C27.8729 10.0039 27.9312 10.005 27.9876 10.0173C28.044 10.0297 28.0975 10.0532 28.1449 10.0864C28.1924 10.1196 28.2328 10.1619 28.2641 10.211C28.2953 10.26 28.3167 10.3147 28.3269 10.3721C28.3372 10.4294 28.3362 10.4883 28.3239 10.5452C28.3117 10.6022 28.2884 10.6561 28.2555 10.704C28.2226 10.7519 28.1807 10.7928 28.1321 10.8243C28.0836 10.8558 28.0293 10.8774 27.9725 10.8877C27.9209 10.8978 27.8678 10.8978 27.8161 10.8877C27.5461 10.844 27.2708 10.844 27.0008 10.8877C26.7213 10.9278 26.4461 10.9941 26.1788 11.0859C25.8997 11.1787 25.6272 11.291 25.3635 11.4219C25.2969 11.4588 25.2271 11.4488 25.1605 11.5898C25.1195 11.6674 25.0849 11.7483 25.0573 11.8317L24.9575 12.0904C24.8876 12.2852 24.8211 12.3659 24.7512 12.3524C24.6813 12.339 24.6181 12.1542 24.5482 11.6805C24.4373 10.8656 24.4396 10.0391 24.5548 9.22484V9.22484Z" fill="#E44450"/>
<path d="M39.6399 5.51274C39.9227 5.89571 39.9959 6.06704 39.9726 6.13423C39.9493 6.20142 39.8295 6.18126 39.6399 6.09391L39.3836 5.98306C39.3069 5.9431 39.2267 5.91048 39.144 5.88563C39.1011 5.86952 39.055 5.86356 39.0095 5.86822C38.9639 5.87288 38.92 5.88803 38.8811 5.91251C38.6069 6.00687 38.339 6.11909 38.0791 6.24845C37.8292 6.38493 37.591 6.54225 37.3669 6.71876C37.1453 6.8798 36.95 7.07475 36.7879 7.29657C36.7217 7.39369 36.62 7.46028 36.5052 7.4817C36.3903 7.50312 36.2718 7.47761 36.1756 7.41079C36.0794 7.34397 36.0134 7.2413 35.9922 7.12538C35.971 7.00946 35.9962 6.88978 36.0624 6.79266C36.0923 6.74739 36.1307 6.70856 36.1756 6.67845C36.3953 6.51483 36.5884 6.31762 36.748 6.09391C36.9136 5.86682 37.0606 5.62637 37.1872 5.37501C37.3154 5.11268 37.4266 4.84225 37.52 4.5654C37.5443 4.52616 37.5593 4.48184 37.5639 4.43583C37.5685 4.38982 37.5626 4.34335 37.5467 4.30001C37.522 4.21652 37.4897 4.13554 37.4501 4.05813L37.3403 3.79946C37.2538 3.6147 37.2438 3.5072 37.3004 3.46352C37.357 3.41985 37.5367 3.5072 37.916 3.79946C38.5658 4.28797 39.1459 4.86448 39.6399 5.51274V5.51274Z" fill="#E44450"/>
<path d="M37.8262 17.368C37.4468 17.6535 37.2771 17.7274 37.2105 17.7039C37.144 17.6804 37.164 17.5595 37.2505 17.368L37.3603 17.1093C37.3999 17.0319 37.4322 16.9509 37.4568 16.8674C37.4728 16.8241 37.4787 16.7776 37.4741 16.7316C37.4694 16.6856 37.4544 16.6413 37.4302 16.602C37.3367 16.3252 37.2255 16.0548 37.0974 15.7924C36.9707 15.5411 36.8238 15.3006 36.6581 15.0735C36.4986 14.8498 36.3055 14.6526 36.0857 14.489C36.0381 14.4559 35.9974 14.4137 35.9659 14.3647C35.9345 14.3157 35.9129 14.261 35.9024 14.2036C35.8811 14.0877 35.9064 13.968 35.9726 13.8709C36.0388 13.7738 36.1405 13.7072 36.2553 13.6857C36.3122 13.6751 36.3706 13.6759 36.4271 13.6881C36.4837 13.7003 36.5373 13.7236 36.5849 13.7567C36.6298 13.7868 36.6682 13.8256 36.6981 13.8709C36.8543 14.09 37.0429 14.2837 37.2571 14.4453C37.4821 14.6126 37.7203 14.7609 37.9693 14.8888C38.2287 15.0238 38.4966 15.1417 38.7713 15.2415C38.8102 15.266 38.8541 15.2811 38.8997 15.2858C38.9452 15.2904 38.9913 15.2845 39.0342 15.2684C39.1169 15.2435 39.1971 15.2109 39.2738 15.1709L39.53 15.0601C39.7131 14.9694 39.8196 14.9627 39.8628 15.0198C39.9061 15.0769 39.8196 15.2583 39.53 15.6413C39.0431 16.2929 38.4698 16.8739 37.8262 17.368V17.368Z" fill="#E44450"/>
<path d="M26.079 15.5337C25.7961 15.1508 25.7229 14.9794 25.7462 14.9123C25.7695 14.8451 25.8893 14.8652 26.079 14.9526L26.3353 15.0634C26.4119 15.1034 26.4921 15.136 26.5749 15.1609C26.6178 15.177 26.6638 15.1829 26.7094 15.1783C26.755 15.1736 26.7989 15.1585 26.8378 15.134C27.112 15.0396 27.3799 14.9274 27.6398 14.798C27.8888 14.6701 28.127 14.5218 28.3519 14.3546C28.5738 14.1925 28.7691 13.9964 28.931 13.7734C28.9637 13.7253 29.0056 13.6842 29.0541 13.6525C29.1026 13.6207 29.1568 13.5989 29.2137 13.5883C29.2705 13.5777 29.3289 13.5785 29.3855 13.5907C29.442 13.6028 29.4956 13.6261 29.5433 13.6592C29.5909 13.6923 29.6316 13.7345 29.6631 13.7835C29.6946 13.8325 29.7162 13.8872 29.7267 13.9446C29.7372 14.002 29.7364 14.0609 29.7243 14.118C29.7123 14.1751 29.6892 14.2292 29.6564 14.2773C29.6266 14.3226 29.5881 14.3614 29.5433 14.3916C29.3235 14.5552 29.1304 14.7524 28.9709 14.9761C28.8052 15.2032 28.6583 15.4436 28.5316 15.695C28.4035 15.9573 28.2923 16.2278 28.1988 16.5046C28.1746 16.5438 28.1596 16.5882 28.155 16.6342C28.1503 16.6802 28.1563 16.7266 28.1722 16.77C28.1968 16.8535 28.2291 16.9345 28.2687 17.0119L28.3785 17.2705C28.4651 17.4553 28.475 17.5628 28.4185 17.6065C28.3619 17.6501 28.1822 17.5628 27.8028 17.2705C27.1515 16.7748 26.5713 16.1903 26.079 15.5337V15.5337Z" fill="#E44450"/>
<path d="M27.896 3.69533C28.2754 3.40978 28.4451 3.33588 28.5117 3.35939C28.5782 3.38291 28.5583 3.50384 28.4718 3.69533L28.3619 3.954C28.3224 4.0314 28.29 4.11238 28.2654 4.19588C28.2495 4.23922 28.2436 4.28569 28.2482 4.33169C28.2528 4.3777 28.2678 4.42203 28.2921 4.46127C28.3909 4.73853 28.5077 5.00898 28.6415 5.27088C28.7682 5.52224 28.9151 5.76268 29.0807 5.98978C29.2403 6.21348 29.4334 6.4107 29.6531 6.57431C29.7493 6.64113 29.8153 6.7438 29.8365 6.85972C29.8577 6.97564 29.8325 7.09532 29.7663 7.19244C29.7001 7.28955 29.5984 7.35614 29.4836 7.37756C29.3687 7.39899 29.2502 7.37348 29.154 7.30666C29.1091 7.27654 29.0706 7.23771 29.0408 7.19244C28.8787 6.97061 28.6834 6.77566 28.4618 6.61463C28.2368 6.44739 27.9986 6.29908 27.7496 6.17119C27.4902 6.0361 27.2223 5.91827 26.9476 5.81845C26.9087 5.79398 26.8648 5.77882 26.8193 5.77417C26.7737 5.76951 26.7276 5.77546 26.6847 5.79158C26.602 5.81642 26.5218 5.84904 26.4451 5.889L26.1889 5.99986C26.0058 6.0872 25.8993 6.09728 25.8561 6.04017C25.8128 5.98306 25.8993 5.80166 26.1889 5.41869C26.677 4.768 27.2515 4.18812 27.896 3.69533V3.69533Z" fill="#E44450"/>
<path d="M32.1689 37.625C33.2717 37.625 34.1656 36.7226 34.1656 35.6094C34.1656 34.4962 33.2717 33.5938 32.1689 33.5938C31.0662 33.5938 30.1722 34.4962 30.1722 35.6094C30.1722 36.7226 31.0662 37.625 32.1689 37.625Z" fill="#ECC6C3"/>
<path d="M17.0273 11.4219C18.222 11.4219 19.1904 10.4442 19.1904 9.23828C19.1904 8.03232 18.222 7.05469 17.0273 7.05469C15.8327 7.05469 14.8643 8.03232 14.8643 9.23828C14.8643 10.4442 15.8327 11.4219 17.0273 11.4219Z" fill="#ECC6C3"/>
<path d="M8.37498 13.7734C10.4886 13.7734 12.202 12.0438 12.202 9.91016C12.202 7.77653 10.4886 6.04688 8.37498 6.04688C6.26138 6.04688 4.54797 7.77653 4.54797 9.91016C4.54797 12.0438 6.26138 13.7734 8.37498 13.7734Z" fill="#ECC6C3"/>
<path d="M35.9959 29.8984C37.7419 29.8984 39.1574 28.4696 39.1574 26.707C39.1574 24.9445 37.7419 23.5156 35.9959 23.5156C34.2499 23.5156 32.8345 24.9445 32.8345 26.707C32.8345 28.4696 34.2499 29.8984 35.9959 29.8984Z" fill="#ECC6C3"/>
</svg>
