<svg width="30" height="20" viewBox="0 0 30 20" fill="none" xmlns="http://www.w3.org/2000/svg">
<path d="M6.375 12.1562C6.375 13.3472 5.40972 14.3125 4.21875 14.3125C3.02778 14.3125 2.0625 13.3472 2.0625 12.1562C2.0625 10.9653 3.02778 10 4.21875 10C5.40972 10 6.375 10.9653 6.375 12.1562Z" fill="#7C7C7C"/>
<path d="M4.9375 14.3125H3.5C1.91228 14.3125 0.625 15.5998 0.625 17.1875V19.3438H7.8125V17.1875C7.8125 15.5998 6.52522 14.3125 4.9375 14.3125Z" fill="#7C7C7C"/>
<path d="M13.5625 12.1562C13.5625 13.3472 12.5972 14.3125 11.4062 14.3125C10.2153 14.3125 9.25 13.3472 9.25 12.1562C9.25 10.9653 10.2153 10 11.4062 10C12.5972 10 13.5625 10.9653 13.5625 12.1562Z" fill="#4A4A4A"/>
<path d="M12.125 14.3125H10.6875C9.09978 14.3125 7.8125 15.5998 7.8125 17.1875V19.3438H15V17.1875C15 15.5998 13.7127 14.3125 12.125 14.3125Z" fill="#4A4A4A"/>
<path d="M20.75 12.1562C20.75 13.3472 19.7847 14.3125 18.5938 14.3125C17.4028 14.3125 16.4375 13.3472 16.4375 12.1562C16.4375 10.9653 17.4028 10 18.5938 10C19.7847 10 20.75 10.9653 20.75 12.1562Z" fill="#7C7C7C"/>
<path d="M19.3125 14.3125H17.875C16.2873 14.3125 15 15.5998 15 17.1875V19.3438H22.1875V17.1875C22.1875 15.5998 20.9002 14.3125 19.3125 14.3125Z" fill="#7C7C7C"/>
<path d="M27.9375 12.1562C27.9375 13.3472 26.9722 14.3125 25.7812 14.3125C24.5903 14.3125 23.625 13.3472 23.625 12.1562C23.625 10.9653 24.5903 10 25.7812 10C26.9722 10 27.9375 10.9653 27.9375 12.1562Z" fill="#4A4A4A"/>
<path d="M26.5 14.3125H25.0625C23.4748 14.3125 22.1875 15.5998 22.1875 17.1875V19.3438H29.375V17.1875C29.375 15.5998 28.0877 14.3125 26.5 14.3125Z" fill="#4A4A4A"/>
<path d="M6.375 2.8125C6.375 4.00347 5.40972 4.96875 4.21875 4.96875C3.02778 4.96875 2.0625 4.00347 2.0625 2.8125C2.0625 1.62153 3.02778 0.65625 4.21875 0.65625C5.40972 0.65625 6.375 1.62153 6.375 2.8125Z" fill="#7C7C7C"/>
<path d="M4.9375 4.96875H3.5C1.91228 4.96875 0.625 6.25603 0.625 7.84375V10H7.8125V7.84375C7.8125 6.25603 6.52522 4.96875 4.9375 4.96875Z" fill="#7C7C7C"/>
<path d="M13.5625 2.8125C13.5625 4.00347 12.5972 4.96875 11.4062 4.96875C10.2153 4.96875 9.25 4.00347 9.25 2.8125C9.25 1.62153 10.2153 0.65625 11.4062 0.65625C12.5972 0.65625 13.5625 1.62153 13.5625 2.8125Z" fill="#4A4A4A"/>
<path d="M12.125 4.96875H10.6875C9.09978 4.96875 7.8125 6.25603 7.8125 7.84375V10H15V7.84375C15 6.25603 13.7127 4.96875 12.125 4.96875Z" fill="#4A4A4A"/>
<path d="M20.75 2.8125C20.75 4.00347 19.7847 4.96875 18.5938 4.96875C17.4028 4.96875 16.4375 4.00347 16.4375 2.8125C16.4375 1.62153 17.4028 0.65625 18.5938 0.65625C19.7847 0.65625 20.75 1.62153 20.75 2.8125Z" fill="#7C7C7C"/>
<path d="M19.3125 4.96875H17.875C16.2873 4.96875 15 6.25603 15 7.84375V10H22.1875V7.84375C22.1875 6.25603 20.9002 4.96875 19.3125 4.96875Z" fill="#7C7C7C"/>
<path d="M27.9375 2.8125C27.9375 4.00347 26.9722 4.96875 25.7812 4.96875C24.5903 4.96875 23.625 4.00347 23.625 2.8125C23.625 1.62153 24.5903 0.65625 25.7812 0.65625C26.9722 0.65625 27.9375 1.62153 27.9375 2.8125Z" fill="#4A4A4A"/>
<path d="M26.5 4.96875H25.0625C23.4748 4.96875 22.1875 6.25603 22.1875 7.84375V10H29.375V7.84375C29.375 6.25603 28.0877 4.96875 26.5 4.96875Z" fill="#4A4A4A"/>
</svg>
