<svg width="46" height="46" viewBox="0 0 46 46" fill="none" xmlns="http://www.w3.org/2000/svg">
<path d="M14.375 25.1562C14.375 26.3472 13.4097 27.3125 12.2188 27.3125C11.0278 27.3125 10.0625 26.3472 10.0625 25.1562C10.0625 23.9653 11.0278 23 12.2188 23C13.4097 23 14.375 23.9653 14.375 25.1562Z" fill="#62C4C3"/>
<path d="M12.9375 27.3125H11.5C9.91228 27.3125 8.625 28.5998 8.625 30.1875V32.3438H15.8125V30.1875C15.8125 28.5998 14.5252 27.3125 12.9375 27.3125Z" fill="#62C4C3"/>
<path d="M21.5625 25.1562C21.5625 26.3472 20.5972 27.3125 19.4062 27.3125C18.2153 27.3125 17.25 26.3472 17.25 25.1562C17.25 23.9653 18.2153 23 19.4062 23C20.5972 23 21.5625 23.9653 21.5625 25.1562Z" fill="#42A5B2"/>
<path d="M20.125 27.3125H18.6875C17.0998 27.3125 15.8125 28.5998 15.8125 30.1875V32.3438H23V30.1875C23 28.5998 21.7127 27.3125 20.125 27.3125Z" fill="#42A5B2"/>
<path d="M28.75 25.1562C28.75 26.3472 27.7847 27.3125 26.5938 27.3125C25.4028 27.3125 24.4375 26.3472 24.4375 25.1562C24.4375 23.9653 25.4028 23 26.5938 23C27.7847 23 28.75 23.9653 28.75 25.1562Z" fill="#62C4C3"/>
<path d="M27.3125 27.3125H25.875C24.2873 27.3125 23 28.5998 23 30.1875V32.3438H30.1875V30.1875C30.1875 28.5998 28.9002 27.3125 27.3125 27.3125Z" fill="#62C4C3"/>
<path d="M35.9375 25.1562C35.9375 26.3472 34.9722 27.3125 33.7812 27.3125C32.5903 27.3125 31.625 26.3472 31.625 25.1562C31.625 23.9653 32.5903 23 33.7812 23C34.9722 23 35.9375 23.9653 35.9375 25.1562Z" fill="#42A5B2"/>
<path d="M34.5 27.3125H33.0625C31.4748 27.3125 30.1875 28.5998 30.1875 30.1875V32.3438H37.375V30.1875C37.375 28.5998 36.0877 27.3125 34.5 27.3125Z" fill="#42A5B2"/>
<path d="M14.375 15.8125C14.375 17.0035 13.4097 17.9688 12.2188 17.9688C11.0278 17.9688 10.0625 17.0035 10.0625 15.8125C10.0625 14.6215 11.0278 13.6562 12.2188 13.6562C13.4097 13.6562 14.375 14.6215 14.375 15.8125Z" fill="#62C4C3"/>
<path d="M12.9375 17.9688H11.5C9.91228 17.9688 8.625 19.256 8.625 20.8438V23H15.8125V20.8438C15.8125 19.256 14.5252 17.9688 12.9375 17.9688Z" fill="#62C4C3"/>
<path d="M21.5625 15.8125C21.5625 17.0035 20.5972 17.9688 19.4062 17.9688C18.2153 17.9688 17.25 17.0035 17.25 15.8125C17.25 14.6215 18.2153 13.6562 19.4062 13.6562C20.5972 13.6562 21.5625 14.6215 21.5625 15.8125Z" fill="#42A5B2"/>
<path d="M20.125 17.9688H18.6875C17.0998 17.9688 15.8125 19.256 15.8125 20.8438V23H23V20.8438C23 19.256 21.7127 17.9688 20.125 17.9688Z" fill="#42A5B2"/>
<path d="M28.75 15.8125C28.75 17.0035 27.7847 17.9688 26.5938 17.9688C25.4028 17.9688 24.4375 17.0035 24.4375 15.8125C24.4375 14.6215 25.4028 13.6562 26.5938 13.6562C27.7847 13.6562 28.75 14.6215 28.75 15.8125Z" fill="#62C4C3"/>
<path d="M27.3125 17.9688H25.875C24.2873 17.9688 23 19.256 23 20.8438V23H30.1875V20.8438C30.1875 19.256 28.9002 17.9688 27.3125 17.9688Z" fill="#62C4C3"/>
<path d="M35.9375 15.8125C35.9375 17.0035 34.9722 17.9688 33.7812 17.9688C32.5903 17.9688 31.625 17.0035 31.625 15.8125C31.625 14.6215 32.5903 13.6562 33.7812 13.6562C34.9722 13.6562 35.9375 14.6215 35.9375 15.8125Z" fill="#42A5B2"/>
<path d="M34.5 17.9688H33.0625C31.4748 17.9688 30.1875 19.256 30.1875 20.8438V23H37.375V20.8438C37.375 19.256 36.0877 17.9688 34.5 17.9688Z" fill="#42A5B2"/>
<path d="M23 0.71875C10.6943 0.71875 0.71875 10.6943 0.71875 23C0.71875 35.3057 10.6943 45.2812 23 45.2812C35.3057 45.2812 45.2812 35.3057 45.2812 23C45.2812 10.6943 35.3057 0.71875 23 0.71875ZM3.59375 23C3.59375 18.1585 5.3705 13.7346 8.303 10.3356L35.6644 37.697C32.2647 40.6288 27.8415 42.4062 23 42.4062C12.282 42.4062 3.59375 33.718 3.59375 23ZM37.697 35.6644L10.3356 8.303C13.7346 5.37122 18.1578 3.59375 23 3.59375C33.718 3.59375 42.4062 12.282 42.4062 23C42.4062 27.8415 40.6288 32.2654 37.697 35.6644Z" fill="#AA494A"/>
</svg>
