<svg width="42" height="42" viewBox="0 0 42 42" fill="none" xmlns="http://www.w3.org/2000/svg">
<path d="M41.0234 20.9914C41.0234 20.9742 41.0234 20.9484 41.0234 20.9313C41.0234 20.7938 41.0234 20.6563 41.0148 20.5273C41.0148 20.45 41.0062 20.3727 41.0062 20.2867C41.0062 20.2094 40.9977 20.132 40.9977 20.0547C40.9891 19.9602 40.9891 19.8656 40.9805 19.7711C40.9805 19.7109 40.9719 19.6508 40.9719 19.5906C40.9633 19.4875 40.9547 19.3844 40.9461 19.2813C40.9461 19.2383 40.9375 19.1867 40.9375 19.1438C40.9289 19.032 40.9117 18.9203 40.9031 18.8C40.9031 18.7742 40.8945 18.7398 40.8945 18.7141C39.7602 8.72813 31.2867 0.967972 21 0.967972C10.7133 0.967972 2.23984 8.72813 1.10547 18.7227C1.10547 18.7484 1.09687 18.7828 1.09687 18.8086C1.08828 18.9203 1.07109 19.032 1.0625 19.1523C1.05391 19.1953 1.05391 19.2469 1.05391 19.2898C1.04531 19.393 1.03672 19.4961 1.02813 19.5992C1.02813 19.6594 1.01953 19.7195 1.01953 19.7797C1.01094 19.8742 1.01094 19.9688 1.00234 20.0633C1.00234 20.1406 0.99375 20.218 0.99375 20.2953C0.99375 20.3727 0.985156 20.45 0.985156 20.5359C0.985156 20.6734 0.976562 20.8109 0.976562 20.9398C0.976562 20.957 0.976562 20.9828 0.976562 21C0.976562 21 0.976562 21 0.976562 21.0086C0.976562 21.0172 0.976562 21.0086 0.976562 21.0172C0.976562 21.0344 0.976562 21.0602 0.976562 21.0773C0.976562 21.2148 0.976563 21.3523 0.985156 21.4813C0.985156 21.5586 0.99375 21.6359 0.99375 21.7219C0.99375 21.7992 1.00234 21.8766 1.00234 21.9539C1.01094 22.0484 1.01094 22.143 1.01953 22.2375C1.01953 22.2977 1.02813 22.3578 1.02813 22.418C1.03672 22.5211 1.04531 22.6242 1.05391 22.7273C1.05391 22.7703 1.0625 22.8219 1.0625 22.8649C1.07109 22.9766 1.08828 23.0883 1.09687 23.2086C1.09687 23.2344 1.10547 23.2688 1.10547 23.2945C2.23984 33.2719 10.7133 41.032 21 41.032C31.2867 41.032 39.7602 33.2719 40.8945 23.2859C40.8945 23.2602 40.9031 23.2258 40.9031 23.2C40.9117 23.0883 40.9289 22.9766 40.9375 22.8563C40.9461 22.8133 40.9461 22.7617 40.9461 22.7188C40.9547 22.6156 40.9633 22.5125 40.9719 22.4094C40.9719 22.3492 40.9805 22.2891 40.9805 22.2289C40.9891 22.1344 40.9891 22.0398 40.9977 21.9453C40.9977 21.868 41.0062 21.7906 41.0062 21.7133C41.0062 21.6359 41.0148 21.5586 41.0148 21.4727C41.0148 21.3352 41.0234 21.1977 41.0234 21.0688C41.0234 21.0516 41.0234 21.0258 41.0234 21.0086C41.0234 21 41.0234 21 41.0234 20.9914C41.0234 21 41.0234 21 41.0234 20.9914Z" fill="#2BB673"/>
<path fill-rule="evenodd" clip-rule="evenodd" d="M31.6823 16.0852L18.2675 29.4915L16.4451 27.6679L29.8599 14.2616L31.6823 16.0852Z" fill="white"/>
<path fill-rule="evenodd" clip-rule="evenodd" d="M13.2061 20.9565L20.0037 27.7541L18.1807 29.5771L11.3831 22.7795L13.2061 20.9565Z" fill="white"/>
</svg>
